<?xml version="1.0" standalone="no"?>
<!DOCTYPE svg PUBLIC "-//W3C//DTD SVG 20010904//EN"
 "http://www.w3.org/TR/2001/REC-SVG-20010904/DTD/svg10.dtd">
<svg version="1.0" xmlns="http://www.w3.org/2000/svg"
 width="315.000000pt" height="315.000000pt" viewBox="0 0 315.000000 315.000000"
 preserveAspectRatio="xMidYMid meet">
<metadata>
Created by potrace 1.11, written by Peter Selinger 2001-2013
</metadata>
<g transform="translate(0.000000,315.000000) scale(0.100000,-0.100000)"
fill="#000000" stroke="none">
<path d="M490 3134 c-137 -36 -242 -114 -289 -214 -21 -46 -26 -72 -29 -167
-7 -190 40 -359 200 -723 134 -302 173 -404 201 -526 38 -160 42 -255 22 -562
-14 -218 -16 -290 -7 -374 21 -194 83 -336 198 -454 62 -62 140 -121 149 -112
3 3 -15 43 -39 89 -65 123 -107 233 -123 327 -16 94 -14 124 35 417 62 367 65
398 59 538 -7 161 -29 280 -106 592 -79 319 -102 442 -103 550 -1 105 11 157
51 212 65 89 173 108 453 78 243 -27 498 -25 498 3 0 4 -24 8 -54 8 -94 2
-240 59 -430 169 -236 135 -331 165 -515 164 -67 0 -139 -6 -171 -15z"/>
<path d="M2465 2745 c-134 -21 -264 -60 -423 -129 -277 -119 -415 -147 -550
-112 -77 19 -73 19 -66 1 9 -22 101 -63 167 -76 80 -14 205 2 359 48 377 111
462 127 576 112 123 -17 213 -77 227 -152 7 -37 -7 -98 -54 -227 -18 -49 -30
-104 -30 -130 l0 -45 23 50 c13 28 51 96 86 150 147 233 176 336 119 430 -49
83 -220 114 -434 80z"/>
</g>
</svg>
